<svg xmlns="http://www.w3.org/2000/svg" viewBox="0 0 90 55" width="90" height="55"><polygon points="4.0,10.3 4.2,8.9 4.2,8.9 4.2,9.5 4.2,9.4 4.2,9.6 4.2,9.5 4.2,9.4 4.2,9.5 4.2,9.5 4.2,9.6 4.2,9.5 4.2,9.3 4.2,9.4 4.2,9.3 4.2,9.4 4.2,9.4 4.2,9.3 4.2,9.3 4.2,9.4 4.2,9.3 4.2,9.3 4.2,9.3 4.2,9.4 4.2,9.3 4.2,9.3 4.2,9.3 4.2,9.3 4.2,9.3 4.2,9.3 4.2,9.3 4.2,9.3 4.2,9.3 4.2,9.3 4.2,9.3 4.2,9.3 4.2,9.3 4.2,9.2 4.2,9.3 4.2,9.3 4.2,9.2 4.2,9.3 4.2,9.2 4.2,9.3 4.2,9.2 4.2,9.3 4.2,9.2 4.4,8.2 4.5,6.4 4.8,7.6 5.1,7.5 5.1,7.4 5.1,7.1 5.2,7.2 5.2,6.9 5.2,6.7 5.2,6.8 5.2,6.7 5.2,6.8 5.3,7.6 5.5,5.9 5.7,7.1 6.1,5.0 6.1,4.4 6.1,4.2 6.1,4.0 6.2,5.7 6.3,6.2 6.3,6.2 6.3,6.2 6.4,5.2 6.5,6.0 6.5,5.9 6.5,6.0 6.5,5.9 6.6,6.3 6.7,5.8 6.7,5.5 6.8,7.1 7.5,8.2 9.0,8.6 9.4,10.3 9.7,9.7 10.3,11.2 11.0,14.0 11.8,18.2 12.3,24.6 16.7,51.0 24.6,39.3 86.0,39.5 86.0,51.0 4.0,51.0" fill="#2A7D7B" fill-opacity="0.12" /><polyline points="4.0,10.3 4.2,8.9 4.2,8.9 4.2,9.5 4.2,9.4 4.2,9.6 4.2,9.5 4.2,9.4 4.2,9.5 4.2,9.5 4.2,9.6 4.2,9.5 4.2,9.3 4.2,9.4 4.2,9.3 4.2,9.4 4.2,9.4 4.2,9.3 4.2,9.3 4.2,9.4 4.2,9.3 4.2,9.3 4.2,9.3 4.2,9.4 4.2,9.3 4.2,9.3 4.2,9.3 4.2,9.3 4.2,9.3 4.2,9.3 4.2,9.3 4.2,9.3 4.2,9.3 4.2,9.3 4.2,9.3 4.2,9.3 4.2,9.3 4.2,9.2 4.2,9.3 4.2,9.3 4.2,9.2 4.2,9.3 4.2,9.2 4.2,9.3 4.2,9.2 4.2,9.3 4.2,9.2 4.4,8.2 4.5,6.4 4.8,7.6 5.1,7.5 5.1,7.4 5.1,7.1 5.2,7.2 5.2,6.9 5.2,6.7 5.2,6.8 5.2,6.7 5.2,6.8 5.3,7.6 5.5,5.9 5.7,7.1 6.1,5.0 6.1,4.4 6.1,4.2 6.1,4.0 6.2,5.7 6.3,6.2 6.3,6.2 6.3,6.2 6.4,5.2 6.5,6.0 6.5,5.9 6.5,6.0 6.5,5.9 6.6,6.3 6.7,5.8 6.7,5.5 6.8,7.1 7.5,8.2 9.0,8.6 9.4,10.3 9.7,9.7 10.3,11.2 11.0,14.0 11.8,18.2 12.3,24.6 16.7,51.0 24.6,39.3 86.0,39.5" fill="none" stroke="#2A7D7B" stroke-width="1.5" stroke-linejoin="round" stroke-linecap="round" /></svg>
